<svg xmlns="http://www.w3.org/2000/svg" viewBox="0 0 64 64">
  <defs>
    <linearGradient id="a" x1="0" y1="0" x2="1" y2="1">
      <stop offset="0" stop-color="#A7C7A0" />
      <stop offset="1" stop-color="#3D6655" />
    </linearGradient>
  </defs>
  <path
    fill="url(#a)"
    d="M32 58c-1.2-.9-29-23.7-29-41.2C3 7.5 12.3 0 23 0c6.3 0 11.9 2.9 15.5 7.8C42.1 2.9 47.7 0 54 0 64.7 0 74 7.5 74 16.8 74 34.3 45.2 57.1 44 58a3.2 3.2 0 0 1-3.8 0Z"
    transform="translate(-10 2) scale(.75)"
  />
  <circle cx="24" cy="16" r="6" fill="#F8FAF9" />
  <circle cx="40" cy="16" r="6" fill="#F8FAF9" />
  <circle cx="32" cy="6" r="5" fill="#F8FAF9" />
</svg>
